<?xml version="1.0" encoding="UTF-8" standalone="no"?>
<!-- Created with Inkscape (http://www.inkscape.org/) -->

<svg
   width="96"
   height="96"
   id="svg4874"
   version="1.1"
   inkscape:version="1.2.1 (9c6d41e410, 2022-07-14, custom)"
   viewBox="0 0 96 96.000001"
   sodipodi:docname="waydroid_outline.svg"
   xml:space="preserve"
   xmlns:inkscape="http://www.inkscape.org/namespaces/inkscape"
   xmlns:sodipodi="http://sodipodi.sourceforge.net/DTD/sodipodi-0.dtd"
   xmlns="http://www.w3.org/2000/svg"
   xmlns:svg="http://www.w3.org/2000/svg"
   xmlns:rdf="http://www.w3.org/1999/02/22-rdf-syntax-ns#"
   xmlns:cc="http://creativecommons.org/ns#"
   xmlns:dc="http://purl.org/dc/elements/1.1/"><defs
     id="defs4876" /><sodipodi:namedview
     id="base"
     pagecolor="#ffffff"
     bordercolor="#666666"
     borderopacity="1.0"
     inkscape:pageopacity="0.0"
     inkscape:pageshadow="2"
     inkscape:zoom="3.3115295"
     inkscape:cx="-96.934061"
     inkscape:cy="66.887522"
     inkscape:document-units="px"
     inkscape:current-layer="g4780"
     showgrid="true"
     showborder="true"
     fit-margin-top="0"
     fit-margin-left="0"
     fit-margin-right="0"
     fit-margin-bottom="0"
     inkscape:snap-bbox="true"
     inkscape:bbox-paths="true"
     inkscape:bbox-nodes="true"
     inkscape:snap-bbox-edge-midpoints="true"
     inkscape:snap-bbox-midpoints="true"
     inkscape:object-paths="true"
     inkscape:snap-intersection-paths="true"
     inkscape:object-nodes="true"
     inkscape:snap-smooth-nodes="true"
     inkscape:snap-midpoints="true"
     inkscape:snap-object-midpoints="true"
     inkscape:snap-center="true"
     showguides="true"
     inkscape:guide-bbox="true"
     inkscape:snap-global="false"
     inkscape:showpageshadow="2"
     inkscape:pagecheckerboard="0"
     inkscape:deskcolor="#d1d1d1"
     inkscape:window-width="3438"
     inkscape:window-height="1398"
     inkscape:window-x="0"
     inkscape:window-y="1480"
     inkscape:window-maximized="1"><inkscape:grid
       type="xygrid"
       id="grid5451"
       empspacing="8" /><sodipodi:guide
       orientation="1,0"
       position="8,-8.0000001"
       id="guide4063"
       inkscape:locked="false" /><sodipodi:guide
       orientation="1,0"
       position="4,-8.0000001"
       id="guide4065"
       inkscape:locked="false" /><sodipodi:guide
       orientation="0,1"
       position="-8,88.000001"
       id="guide4067"
       inkscape:locked="false" /><sodipodi:guide
       orientation="0,1"
       position="-8,92.000001"
       id="guide4069"
       inkscape:locked="false" /><sodipodi:guide
       orientation="0,1"
       position="104,4"
       id="guide4071"
       inkscape:locked="false" /><sodipodi:guide
       orientation="0,1"
       position="-5,8.0000001"
       id="guide4073"
       inkscape:locked="false" /><sodipodi:guide
       orientation="1,0"
       position="92,-8.0000001"
       id="guide4075"
       inkscape:locked="false" /><sodipodi:guide
       orientation="1,0"
       position="88,-8.0000001"
       id="guide4077"
       inkscape:locked="false" /><sodipodi:guide
       orientation="0,1"
       position="-8,84.000001"
       id="guide4074"
       inkscape:locked="false" /><sodipodi:guide
       orientation="1,0"
       position="12,-8.0000001"
       id="guide4076"
       inkscape:locked="false" /><sodipodi:guide
       orientation="0,1"
       position="-5,12"
       id="guide4078"
       inkscape:locked="false" /><sodipodi:guide
       orientation="1,0"
       position="84,-9.0000001"
       id="guide4080"
       inkscape:locked="false" /><sodipodi:guide
       position="-8,48"
       orientation="0,1"
       id="guide4172"
       inkscape:locked="false" /></sodipodi:namedview><metadata
     id="metadata4879"><rdf:RDF><cc:Work
         rdf:about=""><dc:format>image/svg+xml</dc:format><dc:type
           rdf:resource="http://purl.org/dc/dcmitype/StillImage" /></cc:Work></rdf:RDF></metadata><g
     inkscape:label="Layer 1"
     inkscape:groupmode="layer"
     id="layer1"
     transform="translate(67.857146,-78.50504)"><g
       transform="matrix(0,-1,-1,0,373.50506,516.50504)"
       id="g4845"
       style="display:inline"><g
         inkscape:export-ydpi="90"
         inkscape:export-xdpi="90"
         inkscape:export-filename="next01.png"
         transform="matrix(-0.9996045,0,0,1,575.94296,-611.00001)"
         id="g4778"
         inkscape:label="Layer 1"><g
           transform="matrix(-1,0,0,1,575.99999,611)"
           id="g4780"
           style="display:inline"><rect
             style="color:#000000;display:inline;overflow:visible;visibility:visible;fill:none;stroke:none;stroke-width:4;marker:none;enable-background:accumulate"
             id="rect4782"
             width="96.037987"
             height="96"
             x="-438.00244"
             y="345.36221"
             transform="scale(-1,1)" /><path
             id="path980"
             style="fill:#808080;fill-opacity:1;stroke-width:0.232227"
             d="M 429.12785 418.9755 C 429.18636 420.68266 427.79122 422.49545 426.13643 422.08292 C 425.78264 421.99472 423.4122 420.36418 420.86872 418.45987 C 417.60822 416.01873 416.91002 415.58539 415.73193 414.9755 C 415.45507 415.25646 415.16911 415.50912 414.7667 415.95011 C 410.24127 421.48479 404.12816 425.78115 397.85181 427.83878 C 395.95425 428.46087 392.84803 429.2335 392.74823 429.10831 C 392.71777 429.07011 392.51903 427.88996 392.30664 426.48526 C 391.67125 422.28276 390.12854 412.57142 389.48522 408.72354 C 389.1543 406.74421 388.73832 403.87118 388.56102 402.33878 C 388.33167 400.35687 388.26119 397.44168 388.31679 392.23917 C 388.40166 384.29018 388.43215 384.00043 390.27655 373.20011 C 390.78902 370.19917 391.37177 366.59504 391.57198 365.19034 C 392.45758 358.97685 392.70038 357.64301 392.94752 357.64347 C 393.58037 357.6449 397.80087 358.89891 399.70606 359.65128 C 402.28097 360.66812 404.19167 361.69988 406.90812 363.5419 C 409.07291 365.00984 413.36042 368.96906 414.57522 370.62003 C 414.57522 370.62003 415.29937 371.46816 415.64791 371.84073 C 416.41327 371.44426 418.26842 370.23419 420.84723 368.31534 C 423.52791 366.32071 425.80113 364.79758 426.22045 364.71378 C 427.15832 364.52629 428.27487 365.09402 428.74098 365.99503 C 429.26454 367.00708 429.19422 368.59753 428.59248 369.36222 C 428.3172 369.71204 425.98697 371.58049 423.41465 373.51456 L 418.73897 377.03018 L 419.75695 379.43839 C 423.55467 388.40683 423.44472 399.40485 419.46973 408.12393 L 418.71357 409.78409 L 423.35017 413.2587 C 425.90056 415.1696 428.23561 417.02827 428.53973 417.38956 C 428.92643 417.84895 429.10834 418.40644 429.12785 418.9755 z M 418.96758 392.85245 C 418.84965 385.41081 416.10392 378.02551 411.21061 372.39737 C 407.23161 367.76469 401.93 364.27613 396.08158 362.50675 C 395.93314 363.18318 395.78453 363.8596 395.63609 364.53604 C 395.50763 365.19832 395.29543 366.19271 395.1652 366.87198 C 394.78106 368.84588 394.44395 370.83023 394.13549 372.81729 C 393.97349 373.94888 393.77223 375.33644 393.62357 376.56925 C 393.42887 378.13734 393.28424 379.52048 393.13705 381.08097 C 393.02277 382.4131 392.89546 383.9811 392.8127 385.40714 C 392.7181 387.06682 392.64975 388.59957 392.61536 390.29776 C 392.53576 393.40588 392.58353 396.51795 392.71696 399.62393 C 392.77426 400.65045 392.83675 401.94863 392.92408 403.07706 C 393.42549 410.18299 394.50311 417.24485 396.08158 424.19034 C 400.37289 422.83462 404.4204 420.67491 407.81082 417.70206 C 414.11847 412.27788 418.21109 404.34712 418.85621 396.0419 C 418.94798 394.98156 418.98443 393.91554 418.96758 392.85245 z M 391.96276 357.45597 L 391.79668 358.42081 C 391.70529 358.95131 391.51133 360.21285 391.36487 361.2255 L 391.09718 363.06729 L 376.03849 368.08487 C 363.15056 372.37916 360.90165 373.19553 360.4288 373.74503 C 359.88364 374.37856 359.70648 375.50414 360.02239 376.32706 C 360.10261 376.53603 364.25671 380.43361 369.25456 384.98722 C 374.2524 389.54082 378.34214 393.32613 378.34214 393.39933 C 378.34214 393.47253 374.2524 397.25783 369.25456 401.81143 C 364.25671 406.36504 360.10259 410.26262 360.02239 410.47159 C 359.68021 411.36293 359.88019 412.43484 360.51477 413.10831 C 361.06462 413.69187 363.21333 414.47169 375.96034 418.70792 C 384.1047 421.41455 390.81709 423.70762 390.87639 423.80362 C 391.16243 424.26625 391.74092 428.97263 391.53681 429.17667 C 391.15259 429.56073 385.50199 429.70731 382.87713 429.40128 C 374.62041 428.43863 367.33776 424.91965 361.42724 419.038 C 355.89312 413.5309 352.34948 406.62866 351.18491 399.08878 C 350.69091 395.89032 350.72969 390.47617 351.26893 387.32315 C 354.43804 368.79323 371.24752 355.72582 389.91312 357.28409 L 391.96276 357.45597 z M 389.04168 375.3505 C 389.06845 375.38107 388.88416 376.6599 388.63332 378.19229 C 388.38248 379.72468 388.003 382.45177 387.78923 384.25284 L 387.40041 387.52823 L 382.20695 382.98331 C 377.91679 379.22939 377.08945 378.41015 377.4453 378.26065 C 377.98809 378.03261 388.97578 375.2752 389.04168 375.3505 z M 388.90882 410.94229 C 388.93114 411.38555 388.85496 411.4583 388.69389 411.413 C 388.49296 411.35651 386.18574 410.77393 383.56686 410.12003 C 380.94798 409.46612 378.41479 408.82807 377.93573 408.70206 C 377.45666 408.57605 377.06429 408.4333 377.06429 408.3837 C 377.06429 408.33411 378.55375 407.01036 380.37419 405.44229 C 383.78398 402.50521 384.29736 402.05554 386.18508 400.36222 C 386.7945 399.81556 387.32705 399.40927 387.36915 399.45987 C 387.41126 399.51046 387.57379 400.7715 387.72866 402.26065 C 387.88352 403.74981 388.24683 406.44059 388.53562 408.24112 C 388.76711 409.68441 388.88649 410.49904 388.90882 410.94229 z " /></g></g></g></g></svg>
